<svg xmlns="http://www.w3.org/2000/svg" version="1.1" xmlns:xlink="http://www.w3.org/1999/xlink" xmlns:svgjs="http://svgjs.dev/svgjs" viewBox="0 0 800 800" opacity="0.71"><defs><linearGradient x1="50%" y1="0%" x2="50%" y2="100%" id="wwwhirl-grad"><stop stop-color="hsl(30, 100%, 50%)" stop-opacity="1" offset="45%"></stop><stop stop-color="hsl(30, 100%, 70%)" stop-opacity="1" offset="100%"></stop></linearGradient></defs><g stroke-width="2" stroke="url(#wwwhirl-grad)" fill="none" stroke-linecap="round"><path d="M37.00000553894026 440.54391650554464C55.15000498504622 432.92091673818015 145.90000221557614 378.3347934040164 182.20000110778807 379.55991836662855C218.5 380.7850433292407 291.09999778442386 455.24541605689046 327.39999667663585 450.3449162064419C363.6999955688478 445.4444163559932 436.2999933532717 339.2669195962733 472.5999922454837 340.35591956303966C508.8999911376957 341.444919529806 581.4999889221194 451.8422911607456 617.7999878143315 459.0569159405727C654.0999867065435 466.27154072039986 744.8499839370733 405.69591756902116 762.9999833831793 398.0729178016567 " transform="rotate(140.25, 400, 400)"></path><path d="M48.00000537109361 439.315308466795C65.60000483398423 431.92330869238094 153.60000214843745 378.9913103077373 188.8000010742187 380.17931027148245C224 381.36731023522754 294.3999978515626 453.5713080317364 329.59999677734385 448.81930817675595C364.7999957031251 444.0673083217755 435.1999935546877 341.10731146386524 470.399992480469 342.16331143163865C505.5999914062503 343.2193113994121 575.9999892578129 450.2713081324444 611.1999881835942 457.26730791894346C646.3999871093755 464.26330770544246 734.3999844238286 405.52330949804497 751.9999838867193 398.1313097236309 " transform="rotate(136, 400, 400)"></path><path d="M59.00000520324693 438.08670042804533C76.05000468292224 430.92570064658173 161.3000020812988 379.6478272114582 195.40000104064939 380.7987021763363C229.5 381.9495771412144 297.69999791870123 451.89720000658235 331.79999687805184 447.29370014707C365.89999583740246 442.6902002875577 434.0999937561037 342.94770333145715 468.1999927154543 343.97070330023763C502.29999167480514 344.99370326901817 570.4999895935063 448.70032510414325 604.5999885528569 455.47769989731415C638.6999875122075 462.2550746904851 723.949984910584 405.35070142706877 740.9999843902592 398.1897016456051 " transform="rotate(131.75, 400, 400)"></path><path d="M70.00000503540025 436.85808857459847C86.50000453186021 429.92808878608525 169.00000201416015 380.3043403004819 202.00000100708007 381.4180902664929C235 382.531840232504 300.9999979858399 450.22308816673103 333.99999697875984 445.76808830268686C366.9999959716798 441.31308843864264 432.99999395751973 344.7880913843518 465.9999929504397 345.7780913541394C498.99999194335965 346.76809132392697 564.9999899291995 447.12933826114477 597.9999889221195 453.68808806098764C630.9999879150395 460.24683786083045 713.4999853973393 405.1780895413953 729.9999848937993 398.2480897528821 " transform="rotate(127.5, 400, 400)"></path><path d="M81.00000486755357 435.6295072387297C96.95000438079822 428.9305074431669 176.70000194702146 380.96088390708366 208.60000097351076 382.0375088742277C240.5 383.1141338413717 304.2999980529786 448.54900684445784 336.19999707946783 444.2425069758818C368.09999610595713 439.9360071073057 431.8999941589357 346.62850995482455 463.799993185425 347.58550992561925C495.6999922119144 348.54250989641395 559.4999902648929 445.55838193572447 591.3999892913822 451.8985067422392C623.2999883178716 458.238631548754 703.0499858840947 405.0055081733 718.9999853973393 398.3065083777372 " transform="rotate(123.25, 400, 400)"></path><path d="M92.00000469970689 434.40089538528275C107.4000042297362 427.9328955826704 184.40000187988278 381.6173969961073 215.2000009399414 382.65689696438426C246 383.6963969326613 307.5999981201173 446.8748950046065 338.3999971801759 442.7168951314986C369.19999624023444 438.5588952583907 430.7999943603517 348.4688980077192 461.5999934204104 349.39289797952097C492.399992480469 350.31689795132274 553.9999906005862 443.987395092726 584.7999896606449 450.1088949059127C615.5999887207035 456.2303947190993 692.59998637085 404.8328962876265 707.9999859008793 398.3648964850142 " transform="rotate(119, 400, 400)"></path><path d="M103.00000453186021 433.1722911612304C117.8500040786742 426.93529135156854 192.10000181274413 382.2739177145255 221.80000090637208 383.2762926839354C251.5 384.2786676533454 310.8999981872559 445.2007907941497 340.5999972808839 441.19129091650996C370.2999963745118 437.1817910388702 429.69999456176777 350.3092936900084 459.39999365539575 351.2002936628172C489.0999927490237 352.0912936356261 548.4999909362796 442.4164158791221 578.1999900299077 448.3192906989807C607.8999891235355 454.22216551883923 682.1499868576054 404.6602920313476 696.9999864044194 398.4232922216857 " transform="rotate(114.75, 400, 400)"></path><path d="M114.00000436401353 431.9436793077835C128.30000392761218 425.93767949107206 199.80000174560544 382.93043080354914 228.4000008728027 383.89568077409206C257 384.86093074463497 314.1999982543946 443.5266789542984 342.7999973815919 439.66567907212675C371.3999965087892 435.80467918995515 428.59999476318376 352.14968174290306 457.19999389038105 353.007681716719C485.7999930175784 353.86568169053487 542.9999912719729 440.8454290361237 571.5999903991703 446.5296788626541C600.1999895263675 452.21392868918457 671.6999873443608 404.4876801456741 685.9999869079594 398.4816803289627 " transform="rotate(110.5, 400, 400)"></path><path d="M125.00000419616688 430.71509034252017C138.7500037765502 424.94009051875923 207.5000016784668 383.58696678075637 235.0000008392334 384.5150917524323C262.5 385.44321672410814 317.49999832153327 441.8525900026307 344.9999974822999 438.1400901159272C372.4999966430665 434.4275902292237 427.49999496459975 353.9900926839813 454.9999941253664 354.8150926588043C482.4999932861331 355.6400926336273 537.4999916076663 439.2744650813088 564.999990768433 444.74008991451115C592.4999899291996 450.20571474771356 661.2499878311162 404.31509114818425 674.9999874114994 398.54009132442326 " transform="rotate(106.25, 400, 400)"></path><path d="M136.0000040283202 429.4864823037706C149.20000362548816 423.94248247296 215.2000016113281 384.2434836844773 241.60000080566408 385.1344836572861C268 386.025483630095 320.79999838867195 440.1784819774766 347.19999758300787 436.61448208624125C373.59999677734385 433.0504821950059 426.3999951660158 355.83048455157325 452.7999943603518 356.6224845274033C479.19999355468775 357.4144845032334 531.9999919433596 437.70348205300763 558.3999911376957 442.9504818928819C584.7999903320317 448.19748173275616 650.7999883178715 404.14248307720806 663.9999879150395 398.5984832463975 " transform="rotate(102, 400, 400)"></path><path d="M147.00000386047353 428.25785900623185C159.65000347442617 422.94485916837175 222.90000154418942 384.89998532940916 248.2000007720947 385.75386030335096C273.5 386.60773527729276 324.0999984558106 438.5043586935335 349.3999976837159 435.0888587977663C374.69999691162116 431.67335890199905 425.2999953674318 357.6708611603761 450.5999945953371 358.42986113721327C475.8999938232424 359.1888611140504 526.499992279053 436.13248376591736 551.7999915069583 441.1608586124636C577.0999907348637 446.18923345900976 640.3499888046268 403.9698597474428 652.9999884185795 398.65685990958264 " transform="rotate(97.75, 400, 400)"></path><path d="M158.00000369262685 427.02925859687673C170.10000332336415 421.94725875196707 230.60000147705077 385.5565098625246 254.8000007385254 386.3732598375994C279 387.19000981267413 327.39999852294926 436.830258297774 351.59999778442386 433.5632583974749C375.7999970458985 430.2962584971758 424.1999955688478 359.5112606573625 448.39999483032244 360.2372606352068C472.5999940917971 360.96326061305103 520.9999926147464 434.56150836701073 545.199991876221 439.3712582202288C569.3999911376957 444.1810080734469 629.8999892913822 403.79725930586113 641.9999889221194 398.7152594609514 " transform="rotate(93.5, 400, 400)"></path><path d="M169.00000352478017 425.8006734463107C180.55000317230216 420.94967359435145 238.30000140991208 386.21304965442914 261.400000704956 386.9926746306368C284.5 387.77229960684457 330.69999859008794 435.1561731608035 353.7999978851319 432.03767325597255C376.8999971801759 428.91917335114164 423.09999577026383 361.3516754131381 446.1999950653078 362.04467539198936C469.2999943603518 362.7376753708407 515.4999929504397 432.99054822689317 538.5999922454837 437.5816730867831C561.6999915405277 442.1727979466731 619.4499897781375 403.62467412306853 630.9999894256596 398.77367427110926 " transform="rotate(89.25, 400, 400)"></path><path d="M180.0000033569335 424.57206540756107C191.00000302124013 419.9520655485523 246.00000134277343 386.86956655815004 268.0000006713867 387.6120665354907C290 388.3545665128314 333.9999986572266 433.48206513564946 355.9999979858399 430.51206522628667C377.9999973144532 427.54206531692387 421.9999959716798 363.19206728073 443.99999530029316 363.85206726058834C465.99999462890645 364.51206724044675 509.999993286133 431.41956519859195 531.9999926147464 435.79206506515385C553.9999919433596 440.16456493171574 608.9999902648929 403.4520660520923 619.9999899291995 398.8320661930835 " transform="rotate(85, 400, 400)"></path><path d="M191.0000031890868 423.34346118350874C201.45000287017814 418.95446131745035 253.70000127563475 387.5260872765682 274.6000006378174 388.2314622550419C295.5 388.9368372335156 337.2999987243653 431.8079609251927 358.1999980865479 428.98646101129805C379.0999974487305 426.16496109740336 420.8999961730958 365.03246296301916 441.79999553527847 365.65946294388465C462.6999948974611 366.28646292475014 504.4999936218264 429.84858598498806 525.399992984009 434.00246085822187C546.2999923461917 438.15633573145567 598.5499907516482 403.2794617958134 608.9999904327395 398.890461929755 " transform="rotate(80.75, 400, 400)"></path><path d="M202.00000302124016 422.1148531447591C211.90000271911612 417.95685327165114 261.40000120849606 388.1826041802891 281.20000060424803 388.8508541598958C301 389.51910413950236 340.59999879150394 430.1338529000386 360.3999981872559 427.4608529816121C380.19999758300787 424.7878530631856 419.7999963745118 366.87285483061106 439.59999577026383 367.46685481248363C459.3999951660158 368.0608547943562 498.99999395751973 428.2776029566869 518.7999933532717 432.21285283659256C538.5999927490237 436.1481027164983 588.0999912384036 403.10685372483715 597.9999909362796 398.94885385172927 " transform="rotate(76.5, 400, 400)"></path><path d="M213.00000285339348 420.8862489207067C222.35000256805412 416.95924904054925 269.10000114135744 388.8391248987073 287.8000005706787 389.4702498794469C306.5 390.1013748601865 343.8999988586426 428.45974868958183 362.5999982879639 425.93524876662343C381.29999771728524 423.4107488436651 418.6999965759278 368.71325051290023 437.39999600524914 369.2742504957799C456.0999954345705 369.83525047865953 493.4999942932131 426.70662374308296 512.1999937225344 430.4232486296606C530.8999931518557 434.1398735162382 577.649991725159 402.9342494685583 586.9999914398196 399.0072495884008 " transform="rotate(72.25, 400, 400)"></path><path d="M224.0000026855468 419.6576504187002C232.8000024169921 415.9616505314932 276.8000010742187 389.4956513391714 294.40000053710935 390.08965132104396C312 390.68365130291653 347.1999989257813 426.78565020117094 364.79999838867195 424.4096502736807C382.39999785156255 422.0336503461905 417.59999677734385 370.55365191723536 435.1999962402345 371.0816519011221C452.79999570312515 371.60965188500876 487.99999462890645 425.13565025152496 505.5999940917971 428.6336501447745C523.1999935546878 432.13165003802396 567.1999922119144 402.7616509343252 575.9999919433596 399.0656510471182 " transform="rotate(68, 400, 400)"></path><path d="M235.00000251770012 418.42905191669377C243.2500022659301 414.96405202243716 284.5000010070801 390.15217777963545 301.00000050354004 390.709052762641C317.5 391.26592774564654 350.4999989929199 425.11155171276005 366.9999984893799 422.88405178073793C383.4999979858399 420.6565518487158 416.4999969787599 372.3940533215704 432.99999647521986 372.88905330646423C449.4999959716798 373.38405329135804 482.49999496459975 423.5646767599669 498.99999446105977 426.84405165988835C515.4999939575198 430.1234265598098 556.7499926986696 402.58905240009216 564.9999924468996 399.1240525058356 " transform="rotate(63.75, 400, 400)"></path><path d="M246.00000234985345 417.2004476926414C253.7000021148681 413.9664477913352 292.2000009399414 390.8086984980537 307.6000004699707 391.32844848219213C323 391.84819846633064 353.79999906005867 423.43744750230326 369.19999859008794 421.3584475657493C384.5999981201172 419.2794476291954 415.3999971801759 374.2344490038596 430.79999671020516 374.6964489897605C446.1999962402345 375.1584489756614 476.9999953002931 421.993697546363 492.39999483032244 425.0544474529563C507.7999943603518 428.11519735954965 546.299993185425 402.4164481438132 553.9999929504397 399.1824482425071 " transform="rotate(59.5, 400, 400)"></path><path d="M257.00000218200677 415.9718472832863C264.15000196380606 412.9688473749306 299.9000008728027 391.4652230311691 314.20000043640135 391.94784801644056C328.5 392.430473001712 357.0999991271973 421.76334710654373 371.39999869079594 419.8328471654579C385.6999982543946 417.9023472243721 414.2999973815919 376.0748485008461 428.5999969451905 376.503848487754C442.8999965087892 376.93284847466197 471.49999563598647 420.42272214745634 485.79999519958517 423.2648470607216C500.09999476318376 426.10697197398684 535.8499936721804 402.24384770223156 542.9999934539796 399.2408477938759 " transform="rotate(55.25, 400, 400)"></path><path d="M268.0000020141601 414.743237337188C274.6000018127441 411.97123742178275 307.6000008056641 392.12173802754137 320.80000040283204 392.5672380139458C334 393.0127380003502 360.399999194336 420.08923717404105 373.59999879150394 418.3072372284234C386.79999838867195 416.5252372828057 413.19999758300787 377.91523846108936 426.3999971801759 378.3112384490044C439.5999967773439 378.7072384369194 465.9999959716798 418.85173721180655 479.19999556884784 421.4752371317437C492.39999516601586 424.0987370516808 525.3999941589357 402.07123772390673 531.9999939575198 399.29923780850146 " transform="rotate(51, 400, 400)"></path><path d="M279.00000947570794 413.51463311313563C285.0500092910766 410.9736331906808 315.30000836791993 392.7782587459596 327.4000079986572 393.18663373349693C339.50000762939453 393.59500872103433 363.7000068908692 418.41513296358426 375.80000652160646 416.7816330134347C387.9000061523438 415.1481330632852 412.1000054138184 379.75563414337853 424.2000050445557 380.11863413230066C436.30000467529305 380.4816341212228 460.5000039367677 417.2807579982026 472.60000356750504 419.68563292481167C484.70000319824237 422.09050785142074 514.9500022750856 401.8986334676278 521.0000020904542 399.357633545173 " transform="rotate(46.75, 400, 400)"></path><path d="M290.0000093078613 412.28603461112914C295.50000914001464 409.97603468162475 323.00000830078125 393.43478518642365 334.0000079650879 393.806035175094C345.00000762939453 394.17728516376434 367.0000069580078 416.74103447517336 378.00000662231446 415.256034520492C389.0000062866211 413.77103456581057 411.00000561523444 381.5960355477136 422.00000527954114 381.9260355376428C433.0000049438478 382.256035527572 455.00000427246107 415.7097845066446 466.0000039367677 417.89603443992553C477.00000360107435 420.0822843732065 504.50000276184096 401.72603493339477 510.0000025939943 399.4160350038904 " transform="rotate(42.5, 400, 400)"></path><path d="M301.00000914001464 411.0574303870768C305.9500089889526 408.97843045052286 330.70000823364256 394.0913059048418 340.6000079315186 394.42543089464516C350.50000762939453 394.75955588444845 370.3000070251465 415.0669302647166 380.2000067230225 413.7304303055033C390.10000642089847 412.39393034629006 409.90000581665043 383.43643123000277 419.80000551452645 383.7334312209391C429.7000052124024 384.03043121187534 449.5000046081544 414.1388052930407 459.4000043060304 416.10643023299355C469.3000040039064 418.07405517294643 494.05000324859634 401.55343067711584 499.0000030975343 399.4744307405619 " transform="rotate(38.25, 400, 400)"></path><path d="M312.00000897216796 409.8288318850703C316.4000088378906 407.9808319414668 338.4000081665039 394.74783234530594 347.2000078979492 395.04483233624217C356.00000762939453 395.34183232717845 373.6000070922852 413.3928317763057 382.4000068237305 412.20483181256054C391.20000655517583 411.01683184881546 408.8000060180665 385.2768326343379 417.60000574951175 385.54083262628126C426.40000548095713 385.8048326182246 444.0000049438478 412.56783180148267 452.80000467529305 414.31683174810746C461.60000440673844 416.0658316947322 483.6000037353517 401.3808321428828 488.00000360107435 399.5328321992793 " transform="rotate(34, 400, 400)"></path><path d="M323.0000088043213 408.6002238463207C326.8500086868286 406.9832238956676 346.10000809936525 395.40434924902684 353.8000078643799 395.66422424109606C361.50000762939453 395.9240992331653 376.90000715942386 411.71872375115163 384.6000069244385 410.67922378287466C392.30000668945314 409.6397238145977 407.7000062194825 387.1172245019298 415.4000059844971 387.34822449488024C423.10000574951175 387.5792244878307 438.5000052795411 410.9968487731815 446.2000050445557 412.52722372647816C453.9000048095704 414.05759867977486 473.15000422210704 401.2082240719066 477.0000041046144 399.59122412125356 " transform="rotate(29.75, 400, 400)"></path><path d="M334.0000086364746 407.3716196222683C337.30000853576655 405.98561966456566 353.8000080322266 396.060869967445 360.4000078308105 396.28361996064723C367.00000762939453 396.50636995384946 380.20000722656255 410.04461954069484 386.8000070251465 409.153619567886C393.4000068237305 408.2626195950772 406.60000642089847 388.95762018421897 413.2000062194825 389.1556201781765C419.8000060180665 389.353620172134 433.00000561523444 409.42586955957756 439.60000541381845 410.7376195195462C446.20000521240246 412.0493694795147 462.70000470886237 401.0356198156277 466.0000046081544 399.6496198579251 " transform="rotate(25.5, 400, 400)"></path><path d="M345.0000008392334 406.14301730556457C347.75000075531 404.9880173408124 361.50000033569336 396.7173925932118 367.0000001678467 396.90301758754697C372.5 397.0886425818822 383.49999966430664 408.3705172375867 388.99999949645996 407.628017260246C394.4999993286133 406.8855172829053 405.4999989929199 390.7980177738568 410.9999988250733 390.9630177688214C416.4999986572266 391.12801776378603 427.49999832153327 407.8548922533223 432.9999981536866 408.94801721996276C438.4999979858399 410.0411421866032 452.2499975662232 400.8630174666974 454.9999974822999 399.70801750194516 " transform="rotate(21.25, 400, 400)"></path><path d="M356.0000006713867 404.91441308151224C358.20000060424803 403.99041310971046 369.2000002685547 397.37391331163 373.60000013427737 397.52241330709813C378 397.6709133025663 386.7999997314453 406.6964130271299 391.199999597168 406.1024130452573C395.59999946289065 405.50841306338475 404.399999194336 392.638413456146 408.7999990600586 392.7704134521177C413.1999989257813 392.90241344808936 421.9999986572266 406.2839130397184 426.39999852294926 407.1584130130308C430.79999838867195 408.03291298634315 441.7999980529786 400.69041321041846 443.9999979858399 399.7664132386167 " transform="rotate(17, 400, 400)"></path><path d="M367.00000050354004 403.6858107648085C368.650000453186 402.99281078595715 376.900000201416 398.0304359373968 380.200000100708 398.14181093399793C383.5 398.25318593059905 390.099999798584 405.02231072402174 393.39999969787596 404.57681073761734C396.699999597168 404.1313107512129 403.29999939575197 394.4788110457838 406.599999295044 394.57781104276256C409.899999194336 394.6768110397413 416.4999989929199 404.7129357334631 419.799998892212 405.3688107134474C423.09999879150394 406.0246856934317 431.3499985397339 400.51781086148816 432.99999848937995 399.8248108826368 " transform="rotate(12.75, 400, 400)"></path><path d="M378.00000033569336 402.4572065407561C379.10000030212404 401.99520655485526 384.60000013427737 398.686956655815 386.8000000671387 398.7612066535491C389 398.83545665128315 393.39999986572263 403.34820651356495 395.599999798584 403.05120652262866C397.7999997314453 402.7542065316924 402.199999597168 396.319206728073 404.3999995300293 396.38520672605887C406.59999946289065 396.45120672404465 410.9999993286133 403.1419565198592 413.19999926147466 403.5792065065154C415.399999194336 404.0164564931716 420.8999990264893 400.3452066052092 421.9999989929199 399.88320661930834 " transform="rotate(8.5, 400, 400)"></path><path d="M389.0000001678467 401.2286042240524C389.550000151062 400.99760423110195 392.3000000671387 399.34347928158184 393.4000000335693 399.38060428044884C394.5 399.4177292793159 396.6999999328613 401.6741042104568 397.799999899292 401.5256042149887C398.89999986572263 401.3771042195205 401.099999798584 398.15960431771083 402.1999997650147 398.19260431670375C403.2999997314453 398.22560431569667 405.49999966430664 401.5709792136039 406.59999963073733 401.78960420693204C407.699999597168 402.0082292002601 410.4499995132446 400.17260425627893 410.99999949645996 399.9416042633285 " transform="rotate(4.25, 400, 400)"></path></g></svg>