<svg xmlns="http://www.w3.org/2000/svg" version="1.1" xmlns:xlink="http://www.w3.org/1999/xlink" xmlns:svgjs="http://svgjs.com/svgjs" width="500" height="520" preserveAspectRatio="none" viewBox="0 0 500 520"><g mask="url(&quot;#SvgjsMask1066&quot;)" fill="none"><path d="M209.652,217.437C243.46,215.719,273.579,198.003,291.117,169.048C309.371,138.91,315.741,101.446,298.527,70.702C280.967,39.339,245.593,23.103,209.652,23.551C174.51,23.989,143.244,43.12,124.537,72.873C104.391,104.915,93.263,145.509,112.466,178.125C131.469,210.4,172.246,219.338,209.652,217.437" fill="rgba(234, 137, 8, 0.9)" class="triangle-float3"></path><path d="M440.7,461.044C456.37,461.684,473.232,458.382,481.608,445.123C490.452,431.124,488.715,412.895,480.02,398.803C471.746,385.393,456.456,379.018,440.7,378.823C424.546,378.624,407.575,383.727,399.661,397.811C391.866,411.683,396.531,428.657,405.194,442.004C413.03,454.078,426.318,460.457,440.7,461.044" fill="rgba(234, 137, 8, 0.9)" class="triangle-float1"></path><path d="M236.169,360.284C281.978,358.113,309.987,313.977,330.047,272.737C347.17,237.535,351.374,197.223,332.043,163.183C312.476,128.727,275.79,107.921,236.169,107.423C195.644,106.914,157.69,126.467,136.029,160.721C112.703,197.609,105.929,243.421,125.503,282.429C147.184,325.635,187.882,362.572,236.169,360.284" fill="rgba(234, 137, 8, 0.9)" class="triangle-float1"></path><path d="M542.495,308.205C592.356,312.001,646.634,298.804,672.321,255.901C698.53,212.125,685.913,157.026,658.937,113.718C633.632,73.094,590.354,47.044,542.495,47.477C495.368,47.904,451.438,74.005,429.647,115.794C409.27,154.872,420.623,200.42,442.919,238.436C464.894,275.905,499.182,304.907,542.495,308.205" fill="rgba(234, 137, 8, 0.9)" class="triangle-float2"></path><path d="M463.13,201.454C498.848,200.93,516.123,161.835,533.971,130.892C551.799,99.983,576.792,65.565,559.523,34.34C541.987,2.631,499.233,-0.29,463.13,2.799C432.882,5.387,406.701,22.357,391.621,48.706C376.648,74.867,375.817,105.724,388.597,133.024C403.924,165.763,426.985,201.984,463.13,201.454" fill="rgba(234, 137, 8, 0.9)" class="triangle-float3"></path><path d="M295.954,617.836C341.028,617.119,372.654,578.754,394.919,539.556C416.832,500.978,433.155,454.431,410.405,416.341C388.041,378.896,339.564,374.496,295.954,373.86C250.744,373.201,199.373,374.473,175.575,412.918C150.973,452.662,167.708,502.491,191.384,542.793C214.676,582.442,249.976,618.567,295.954,617.836" fill="rgba(234, 137, 8, 0.9)" class="triangle-float3"></path></g><defs><mask id="SvgjsMask1066"><rect width="500" height="520" fill="#ffffff"></rect></mask><style>
            @keyframes float1 {
                0%{transform: translate(0, 0)}
                50%{transform: translate(-10px, 0)}
                100%{transform: translate(0, 0)}
            }

            .triangle-float1 {
                animation: float1 5s infinite;
            }

            @keyframes float2 {
                0%{transform: translate(0, 0)}
                50%{transform: translate(-5px, -5px)}
                100%{transform: translate(0, 0)}
            }

            .triangle-float2 {
                animation: float2 4s infinite;
            }

            @keyframes float3 {
                0%{transform: translate(0, 0)}
                50%{transform: translate(0, -10px)}
                100%{transform: translate(0, 0)}
            }

            .triangle-float3 {
                animation: float3 6s infinite;
            }
        </style></defs></svg>