<svg xmlns="http://www.w3.org/2000/svg" version="1.1" xmlns:xlink="http://www.w3.org/1999/xlink" xmlns:svgjs="http://svgjs.com/svgjs" width="1280" height="768" preserveAspectRatio="none" viewBox="0 0 1280 768"><g mask="url(&quot;#SvgjsMask1558&quot;)" fill="none"><g mask="url(&quot;#SvgjsMask1559&quot;)"><path d="M1147.5 337.5L1120.5 364.5L1093.5 364.5M1174.5 364.5L1147.5 364.5L1120.5 391.5M1201.5 391.5L1174.5 391.5L1147.5 391.5M1309.5 391.5L1282.5 391.5L1255.5 391.5L1228.5 391.5L1201.5 391.5L1174.5 364.5L1147.5 337.5L1120.5 337.5L1093.5 337.5L1066.5 337.5L1039.5 337.5" stroke="rgba(229, 144, 32, 0.9)" stroke-width="4.5"></path><path d="M1032.75 337.5 a6.75 6.75 0 1 0 13.5 0 a6.75 6.75 0 1 0 -13.5 0zM1086.75 364.5 a6.75 6.75 0 1 0 13.5 0 a6.75 6.75 0 1 0 -13.5 0zM1113.75 391.5 a6.75 6.75 0 1 0 13.5 0 a6.75 6.75 0 1 0 -13.5 0zM1140.75 391.5 a6.75 6.75 0 1 0 13.5 0 a6.75 6.75 0 1 0 -13.5 0z" fill="rgba(229, 144, 32, 0.9)"></path><path d="M1012.5 310.5L985.5 337.5M985.5 310.5L958.5 283.5M1066.5 310.5L1039.5 283.5L1012.5 283.5L985.5 283.5L958.5 256.5M1309.5 364.5L1282.5 364.5L1255.5 364.5L1228.5 364.5L1201.5 364.5L1174.5 337.5L1147.5 310.5L1120.5 310.5L1093.5 310.5L1066.5 310.5L1039.5 310.5L1012.5 310.5L985.5 310.5L958.5 310.5" stroke="rgba(72, 75, 79, 0.5)" stroke-width="4.5"></path><path d="M951.75 310.5 a6.75 6.75 0 1 0 13.5 0 a6.75 6.75 0 1 0 -13.5 0zM978.75 337.5 a6.75 6.75 0 1 0 13.5 0 a6.75 6.75 0 1 0 -13.5 0zM951.75 283.5 a6.75 6.75 0 1 0 13.5 0 a6.75 6.75 0 1 0 -13.5 0zM951.75 256.5 a6.75 6.75 0 1 0 13.5 0 a6.75 6.75 0 1 0 -13.5 0z" fill="rgba(72, 75, 79, 0.5)"></path><path d="M1309.5 418.5L1282.5 418.5L1255.5 418.5L1228.5 418.5L1201.5 418.5L1174.5 418.5L1147.5 418.5L1120.5 418.5L1093.5 418.5L1066.5 418.5L1039.5 418.5" stroke="rgba(229, 144, 32, 0.9)" stroke-width="4.5"></path><path d="M1032.75 418.5 a6.75 6.75 0 1 0 13.5 0 a6.75 6.75 0 1 0 -13.5 0z" fill="rgba(229, 144, 32, 0.9)"></path><path d="M1309.5 337.5L1282.5 337.5L1255.5 337.5L1228.5 337.5L1201.5 337.5L1174.5 310.5L1147.5 283.5L1120.5 283.5" stroke="rgba(72, 75, 79, 0.5)" stroke-width="4.5"></path><path d="M1113.75 283.5 a6.75 6.75 0 1 0 13.5 0 a6.75 6.75 0 1 0 -13.5 0z" fill="rgba(72, 75, 79, 0.5)"></path><path d="M1093.5 445.5L1066.5 472.5L1039.5 499.5L1012.5 499.5L985.5 499.5M1120.5 445.5L1093.5 472.5L1066.5 499.5M1174.5 445.5L1147.5 472.5L1120.5 472.5L1093.5 499.5M1309.5 445.5L1282.5 445.5L1255.5 445.5L1228.5 445.5L1201.5 445.5L1174.5 445.5L1147.5 445.5L1120.5 445.5L1093.5 445.5L1066.5 445.5L1039.5 445.5L1012.5 445.5L985.5 445.5" stroke="rgba(229, 144, 32, 0.9)" stroke-width="4.5"></path><path d="M978.75 445.5 a6.75 6.75 0 1 0 13.5 0 a6.75 6.75 0 1 0 -13.5 0zM978.75 499.5 a6.75 6.75 0 1 0 13.5 0 a6.75 6.75 0 1 0 -13.5 0zM1059.75 499.5 a6.75 6.75 0 1 0 13.5 0 a6.75 6.75 0 1 0 -13.5 0zM1086.75 499.5 a6.75 6.75 0 1 0 13.5 0 a6.75 6.75 0 1 0 -13.5 0z" fill="rgba(229, 144, 32, 0.9)"></path><path d="M1147.5 256.5L1120.5 256.5M1039.5 229.5L1012.5 256.5L985.5 256.5M1012.5 229.5L985.5 202.5M1309.5 310.5L1282.5 310.5L1255.5 310.5L1228.5 310.5L1201.5 310.5L1174.5 283.5L1147.5 256.5L1120.5 229.5L1093.5 229.5L1066.5 229.5L1039.5 229.5L1012.5 229.5L985.5 229.5L958.5 229.5" stroke="rgba(72, 75, 79, 0.5)" stroke-width="4.5"></path><path d="M951.75 229.5 a6.75 6.75 0 1 0 13.5 0 a6.75 6.75 0 1 0 -13.5 0zM1113.75 256.5 a6.75 6.75 0 1 0 13.5 0 a6.75 6.75 0 1 0 -13.5 0zM978.75 256.5 a6.75 6.75 0 1 0 13.5 0 a6.75 6.75 0 1 0 -13.5 0zM978.75 202.5 a6.75 6.75 0 1 0 13.5 0 a6.75 6.75 0 1 0 -13.5 0z" fill="rgba(72, 75, 79, 0.5)"></path><path d="M1309.5 472.5L1282.5 472.5L1255.5 472.5L1228.5 472.5L1201.5 472.5" stroke="rgba(229, 144, 32, 0.9)" stroke-width="4.5"></path><path d="M1194.75 472.5 a6.75 6.75 0 1 0 13.5 0 a6.75 6.75 0 1 0 -13.5 0z" fill="rgba(229, 144, 32, 0.9)"></path><path d="M1228.5 283.5L1201.5 283.5M1309.5 283.5L1282.5 283.5L1255.5 283.5L1228.5 283.5L1201.5 256.5L1174.5 256.5L1147.5 229.5L1120.5 202.5L1093.5 202.5L1066.5 202.5" stroke="rgba(72, 75, 79, 0.5)" stroke-width="4.5"></path><path d="M1059.75 202.5 a6.75 6.75 0 1 0 13.5 0 a6.75 6.75 0 1 0 -13.5 0zM1194.75 283.5 a6.75 6.75 0 1 0 13.5 0 a6.75 6.75 0 1 0 -13.5 0z" fill="rgba(72, 75, 79, 0.5)"></path><path d="M1120.5 526.5L1093.5 553.5L1066.5 553.5L1039.5 553.5L1012.5 580.5M1201.5 526.5L1174.5 553.5L1147.5 553.5L1120.5 553.5M1228.5 499.5L1201.5 499.5M1309.5 499.5L1282.5 499.5L1255.5 499.5L1228.5 499.5L1201.5 526.5L1174.5 526.5L1147.5 526.5L1120.5 526.5L1093.5 526.5" stroke="rgba(229, 144, 32, 0.9)" stroke-width="4.5"></path><path d="M1086.75 526.5 a6.75 6.75 0 1 0 13.5 0 a6.75 6.75 0 1 0 -13.5 0zM1005.75 580.5 a6.75 6.75 0 1 0 13.5 0 a6.75 6.75 0 1 0 -13.5 0zM1113.75 553.5 a6.75 6.75 0 1 0 13.5 0 a6.75 6.75 0 1 0 -13.5 0zM1194.75 499.5 a6.75 6.75 0 1 0 13.5 0 a6.75 6.75 0 1 0 -13.5 0z" fill="rgba(229, 144, 32, 0.9)"></path><path d="M1120.5 175.5L1093.5 148.5M1201.5 229.5L1174.5 229.5M1309.5 256.5L1282.5 256.5L1255.5 256.5L1228.5 256.5L1201.5 229.5L1174.5 202.5L1147.5 202.5L1120.5 175.5L1093.5 175.5L1066.5 175.5" stroke="rgba(72, 75, 79, 0.5)" stroke-width="4.5"></path><path d="M1059.75 175.5 a6.75 6.75 0 1 0 13.5 0 a6.75 6.75 0 1 0 -13.5 0zM1086.75 148.5 a6.75 6.75 0 1 0 13.5 0 a6.75 6.75 0 1 0 -13.5 0zM1167.75 229.5 a6.75 6.75 0 1 0 13.5 0 a6.75 6.75 0 1 0 -13.5 0z" fill="rgba(72, 75, 79, 0.5)"></path><path d="M1255.5 526.5L1228.5 526.5M1309.5 526.5L1282.5 526.5L1255.5 526.5L1228.5 553.5" stroke="rgba(229, 144, 32, 0.9)" stroke-width="4.5"></path><path d="M1221.75 553.5 a6.75 6.75 0 1 0 13.5 0 a6.75 6.75 0 1 0 -13.5 0zM1221.75 526.5 a6.75 6.75 0 1 0 13.5 0 a6.75 6.75 0 1 0 -13.5 0z" fill="rgba(229, 144, 32, 0.9)"></path><path d="M1255.5 229.5L1228.5 202.5M1174.5 175.5L1147.5 148.5M1309.5 229.5L1282.5 229.5L1255.5 229.5L1228.5 229.5L1201.5 202.5L1174.5 175.5L1147.5 175.5" stroke="rgba(229, 144, 32, 0.9)" stroke-width="4.5"></path><path d="M1140.75 175.5 a6.75 6.75 0 1 0 13.5 0 a6.75 6.75 0 1 0 -13.5 0zM1221.75 202.5 a6.75 6.75 0 1 0 13.5 0 a6.75 6.75 0 1 0 -13.5 0zM1140.75 148.5 a6.75 6.75 0 1 0 13.5 0 a6.75 6.75 0 1 0 -13.5 0z" fill="rgba(229, 144, 32, 0.9)"></path><path d="M1309.5 553.5L1282.5 553.5" stroke="rgba(72, 75, 79, 0.5)" stroke-width="4.5"></path><path d="M1275.75 553.5 a6.75 6.75 0 1 0 13.5 0 a6.75 6.75 0 1 0 -13.5 0z" fill="rgba(72, 75, 79, 0.5)"></path><path d="M1309.5 202.5L1282.5 202.5" stroke="rgba(229, 144, 32, 0.9)" stroke-width="4.5"></path><path d="M1275.75 202.5 a6.75 6.75 0 1 0 13.5 0 a6.75 6.75 0 1 0 -13.5 0z" fill="rgba(229, 144, 32, 0.9)"></path></g></g><defs><mask id="SvgjsMask1558"><rect width="1280" height="768" fill="#ffffff"></rect></mask><mask id="SvgjsMask1559"><rect width="1280" height="768" fill="white"></rect><path d="M1036.12 337.5 a3.38 3.38 0 1 0 6.76 0 a3.38 3.38 0 1 0 -6.76 0zM1090.12 364.5 a3.38 3.38 0 1 0 6.76 0 a3.38 3.38 0 1 0 -6.76 0zM1117.12 391.5 a3.38 3.38 0 1 0 6.76 0 a3.38 3.38 0 1 0 -6.76 0zM1144.12 391.5 a3.38 3.38 0 1 0 6.76 0 a3.38 3.38 0 1 0 -6.76 0z" fill="black"></path><path d="M955.12 310.5 a3.38 3.38 0 1 0 6.76 0 a3.38 3.38 0 1 0 -6.76 0zM982.12 337.5 a3.38 3.38 0 1 0 6.76 0 a3.38 3.38 0 1 0 -6.76 0zM955.12 283.5 a3.38 3.38 0 1 0 6.76 0 a3.38 3.38 0 1 0 -6.76 0zM955.12 256.5 a3.38 3.38 0 1 0 6.76 0 a3.38 3.38 0 1 0 -6.76 0z" fill="black"></path><path d="M1036.12 418.5 a3.38 3.38 0 1 0 6.76 0 a3.38 3.38 0 1 0 -6.76 0z" fill="black"></path><path d="M1117.12 283.5 a3.38 3.38 0 1 0 6.76 0 a3.38 3.38 0 1 0 -6.76 0z" fill="black"></path><path d="M982.12 445.5 a3.38 3.38 0 1 0 6.76 0 a3.38 3.38 0 1 0 -6.76 0zM982.12 499.5 a3.38 3.38 0 1 0 6.76 0 a3.38 3.38 0 1 0 -6.76 0zM1063.12 499.5 a3.38 3.38 0 1 0 6.76 0 a3.38 3.38 0 1 0 -6.76 0zM1090.12 499.5 a3.38 3.38 0 1 0 6.76 0 a3.38 3.38 0 1 0 -6.76 0z" fill="black"></path><path d="M955.12 229.5 a3.38 3.38 0 1 0 6.76 0 a3.38 3.38 0 1 0 -6.76 0zM1117.12 256.5 a3.38 3.38 0 1 0 6.76 0 a3.38 3.38 0 1 0 -6.76 0zM982.12 256.5 a3.38 3.38 0 1 0 6.76 0 a3.38 3.38 0 1 0 -6.76 0zM982.12 202.5 a3.38 3.38 0 1 0 6.76 0 a3.38 3.38 0 1 0 -6.76 0z" fill="black"></path><path d="M1198.12 472.5 a3.38 3.38 0 1 0 6.76 0 a3.38 3.38 0 1 0 -6.76 0z" fill="black"></path><path d="M1063.12 202.5 a3.38 3.38 0 1 0 6.76 0 a3.38 3.38 0 1 0 -6.76 0zM1198.12 283.5 a3.38 3.38 0 1 0 6.76 0 a3.38 3.38 0 1 0 -6.76 0z" fill="black"></path><path d="M1090.12 526.5 a3.38 3.38 0 1 0 6.76 0 a3.38 3.38 0 1 0 -6.76 0zM1009.12 580.5 a3.38 3.38 0 1 0 6.76 0 a3.38 3.38 0 1 0 -6.76 0zM1117.12 553.5 a3.38 3.38 0 1 0 6.76 0 a3.38 3.38 0 1 0 -6.76 0zM1198.12 499.5 a3.38 3.38 0 1 0 6.76 0 a3.38 3.38 0 1 0 -6.76 0z" fill="black"></path><path d="M1063.12 175.5 a3.38 3.38 0 1 0 6.76 0 a3.38 3.38 0 1 0 -6.76 0zM1090.12 148.5 a3.38 3.38 0 1 0 6.76 0 a3.38 3.38 0 1 0 -6.76 0zM1171.12 229.5 a3.38 3.38 0 1 0 6.76 0 a3.38 3.38 0 1 0 -6.76 0z" fill="black"></path><path d="M1225.12 553.5 a3.38 3.38 0 1 0 6.76 0 a3.38 3.38 0 1 0 -6.76 0zM1225.12 526.5 a3.38 3.38 0 1 0 6.76 0 a3.38 3.38 0 1 0 -6.76 0z" fill="black"></path><path d="M1144.12 175.5 a3.38 3.38 0 1 0 6.76 0 a3.38 3.38 0 1 0 -6.76 0zM1225.12 202.5 a3.38 3.38 0 1 0 6.76 0 a3.38 3.38 0 1 0 -6.76 0zM1144.12 148.5 a3.38 3.38 0 1 0 6.76 0 a3.38 3.38 0 1 0 -6.76 0z" fill="black"></path><path d="M1279.12 553.5 a3.38 3.38 0 1 0 6.76 0 a3.38 3.38 0 1 0 -6.76 0z" fill="black"></path><path d="M1279.12 202.5 a3.38 3.38 0 1 0 6.76 0 a3.38 3.38 0 1 0 -6.76 0z" fill="black"></path></mask></defs></svg>