<svg xmlns="http://www.w3.org/2000/svg" version="1.1" xmlns:xlink="http://www.w3.org/1999/xlink" xmlns:svgjs="http://svgjs.com/svgjs" width="1440" height="560" preserveAspectRatio="none" viewBox="0 0 1440 560"><g mask="url(&quot;#SvgjsMask1122&quot;)" fill="none"><path d="M-93.92 19.26 a113.18 113.18 0 1 0 226.36 0 a113.18 113.18 0 1 0 -226.36 0z" fill="rgba(234, 137, 8, 0.6)" class="triangle-float2"></path><path d="M25.793,78.935C43.822,78.001,58.364,65.433,66.874,49.511C74.862,34.565,75.24,16.812,66.871,2.076C58.396,-12.847,42.934,-21.983,25.793,-22.826C6.93,-23.754,-12.775,-18.259,-22.939,-2.342C-33.808,14.68,-33.769,36.864,-23.384,54.185C-13.27,71.054,6.15,79.952,25.793,78.935" fill="rgba(234, 137, 8, 0.6)" class="triangle-float2"></path><path d="M-66.96 -7.7 a59.26 59.26 0 1 0 118.52 0 a59.26 59.26 0 1 0 -118.52 0z" fill="rgba(234, 137, 8, 0.6)" class="triangle-float1"></path><path d="M1251.49 1.84 a78.35 78.35 0 1 0 156.7 0 a78.35 78.35 0 1 0 -156.7 0z" fill="rgba(234, 137, 8, 0.6)" class="triangle-float1"></path><path d="M1339.216,49.232C1352.576,48.631,1364.629,41.329,1371.106,29.628C1377.383,18.288,1376.02,4.914,1370.144,-6.64C1363.555,-19.597,1353.698,-31.819,1339.216,-33.076C1322.681,-34.511,1305.523,-27.4,1297.343,-12.959C1289.256,1.319,1292.776,19.127,1301.94,32.738C1310.073,44.818,1324.668,49.886,1339.216,49.232" fill="rgba(234, 137, 8, 0.6)" class="triangle-float2"></path><path d="M1337.648,44.75C1352.652,44.828,1370.189,45.758,1377.943,32.913C1385.836,19.837,1378.858,3.434,1370.171,-9.129C1362.785,-19.809,1350.626,-24.94,1337.648,-25.357C1323.734,-25.804,1309.148,-22.834,1301.289,-11.344C1292.423,1.618,1289.534,19.317,1298.076,32.495C1306.126,44.914,1322.848,44.673,1337.648,44.75" fill="rgba(234, 137, 8, 0.6)" class="triangle-float3"></path><path d="M118.301,717.095C170.622,716.411,218.241,684.259,241.02,637.153C261.401,595.005,242.415,548.701,219.465,507.895C195.874,465.95,166.399,420.528,118.301,418.956C68.374,417.324,30.049,457.668,4.994,500.884C-20.158,544.268,-33.38,596.017,-10.102,640.435C14.698,687.758,64.878,717.793,118.301,717.095" fill="rgba(234, 137, 8, 0.6)" class="triangle-float1"></path><path d="M-87.87 461.2 a101.07 101.07 0 1 0 202.14 0 a101.07 101.07 0 1 0 -202.14 0z" fill="rgba(234, 137, 8, 0.6)" class="triangle-float3"></path><path d="M24.841,528.747C44.08,528.728,60.034,515.374,69.467,498.606C78.697,482.199,81.076,462.108,71.417,445.95C61.975,430.155,43.243,424.025,24.841,423.953C6.288,423.881,-12.834,429.67,-22.369,445.585C-32.13,461.878,-29.31,482.175,-19.934,498.692C-10.423,515.447,5.575,528.766,24.841,528.747" fill="rgba(234, 137, 8, 0.6)" class="triangle-float3"></path><path d="M1279.45 421.89 a22.44 22.44 0 1 0 44.88 0 a22.44 22.44 0 1 0 -44.88 0z" fill="rgba(234, 137, 8, 0.6)" class="triangle-float1"></path><path d="M1273.08 428.25 a35.17 35.17 0 1 0 70.34 0 a35.17 35.17 0 1 0 -70.34 0z" fill="rgba(234, 137, 8, 0.6)" class="triangle-float3"></path><path d="M1356.1,527.526C1376.854,528.141,1399.706,525.237,1410.704,507.626C1422.186,489.239,1417.28,465.81,1406.321,447.106C1395.5,428.639,1377.467,413.182,1356.1,414.436C1336.17,415.606,1324.725,434.94,1315.147,452.456C1306.106,468.992,1297.803,488.004,1306.828,504.548C1316.13,521.599,1336.686,526.951,1356.1,527.526" fill="rgba(234, 137, 8, 0.6)" class="triangle-float1"></path></g><defs><mask id="SvgjsMask1122"><rect width="1440" height="560" fill="#ffffff"></rect></mask><style>
            @keyframes float1 {
                0%{transform: translate(0, 0)}
                50%{transform: translate(-10px, 0)}
                100%{transform: translate(0, 0)}
            }

            .triangle-float1 {
                animation: float1 5s infinite;
            }

            @keyframes float2 {
                0%{transform: translate(0, 0)}
                50%{transform: translate(-5px, -5px)}
                100%{transform: translate(0, 0)}
            }

            .triangle-float2 {
                animation: float2 4s infinite;
            }

            @keyframes float3 {
                0%{transform: translate(0, 0)}
                50%{transform: translate(0, -10px)}
                100%{transform: translate(0, 0)}
            }

            .triangle-float3 {
                animation: float3 6s infinite;
            }
        </style></defs></svg>