<svg xmlns="http://www.w3.org/2000/svg" version="1.1" xmlns:xlink="http://www.w3.org/1999/xlink" xmlns:svgjs="http://svgjs.com/svgjs" width="500" height="520" preserveAspectRatio="none" viewBox="0 0 500 520"><g mask="url(&quot;#SvgjsMask1463&quot;)" fill="none"><path d="M-74.57 379.72C-10.69 377.02 61.26 266.72 156.7 270.52 252.14 274.32 216.56 492.3 272.34 539.8" stroke="rgba(214, 141, 13, 0.58)" stroke-width="2"></path><path d="M-0.57 172.46C74.15 190.31 73.15 364.17 215.57 390.86 357.99 417.55 363.98 549.1 431.71 558.54" stroke="rgba(214, 141, 13, 0.58)" stroke-width="2"></path><path d="M-90.99 269.14C-38.57 255.89-47.34 84.76 58.8 113.14 164.94 141.52 129.61 493.63 208.59 590.68" stroke="rgba(214, 141, 13, 0.58)" stroke-width="2"></path><path d="M-38.07 362.89C25.34 351.07 66.21 180.86 154.62 191.29 243.03 201.72 197.82 488.65 250.97 570.87" stroke="rgba(214, 141, 13, 0.58)" stroke-width="2"></path><path d="M-24.78 25.94C51.68 41.64 38.03 190.44 203.31 239.14 368.59 287.84 342.91 508.29 431.4 542.58" stroke="rgba(214, 141, 13, 0.58)" stroke-width="2"></path></g><defs><mask id="SvgjsMask1463"><rect width="500" height="520" fill="#ffffff"></rect></mask></defs></svg>